<?xml version="1.0" encoding="utf-8"?>
<!-- Generator: Adobe Illustrator 20.1.0, SVG Export Plug-In . SVG Version: 6.00 Build 0)  -->
<svg version="1.1" id="Layer_1" xmlns="http://www.w3.org/2000/svg" xmlns:xlink="http://www.w3.org/1999/xlink" x="0px" y="0px"
	 viewBox="0 0 44 44" style="enable-background:new 0 0 44 44;" xml:space="preserve">
<style type="text/css">
	.st0{clip-path:url(#SVGID_2_);}
	.st1{clip-path:url(#SVGID_4_);fill:#FFFFFF;}
</style>
<g id="Artwork_1">
	<g>
		<defs>
			<rect id="SVGID_1_" x="7.6" y="3.5" width="28.7" height="37.1"/>
		</defs>
		<clipPath id="SVGID_2_">
			<use xlink:href="#SVGID_1_"  style="overflow:visible;"/>
		</clipPath>
		<g class="st0">
			<defs>
				<rect id="SVGID_3_" x="7.6" y="3.5" width="28.7" height="37.1"/>
			</defs>
			<clipPath id="SVGID_4_">
				<use xlink:href="#SVGID_3_"  style="overflow:visible;"/>
			</clipPath>
			<path class="st1" d="M35.5,16.8h-9.3c-1.7,0-3.2-1.4-3.2-3.1V4.6c0-0.6-0.5-1.1-1.1-1.1H9.7c-1.2,0-2.1,0.9-2.1,2.1v32.9
				c0,1.1,0.9,2.1,2.1,2.1h24.6c1.2,0,2.1-0.9,2.1-2.1V17.6C36.4,17.1,36,16.8,35.5,16.8 M26.6,36.9c0,0.2-0.2,0.4-0.4,0.4h-3.8
				c-0.2,0-0.3-0.1-0.4-0.2l-5.8-10.1c-0.2-0.4-0.8-0.2-0.8,0.2v9.7c0,0.2-0.2,0.4-0.4,0.4h-3.7c-0.2,0-0.4-0.2-0.4-0.4V19
				c0-0.2,0.2-0.4,0.4-0.4h3.9c0.2,0,0.3,0.1,0.4,0.2l5.8,10.1c0.2,0.4,0.8,0.2,0.8-0.2V19c0-0.2,0.2-0.4,0.4-0.4h3.7
				c0.2,0,0.4,0.2,0.4,0.4V36.9z"/>
			<path class="st1" d="M35.4,15.2L24.6,4.5c-0.4-0.4-1-0.1-1,0.4v8.7c0,1.4,1.1,2.6,2.6,2.6H35C35.5,16.2,35.8,15.6,35.4,15.2
				 M28,10.7c0,0.2-0.1,0.4-0.2,0.6L26.2,14H28v0.7h-2.7v-0.5l1.9-3.4v-1h-1v1h-0.8V9.6c0-0.3,0.2-0.5,0.5-0.5h1.7
				c0.3,0,0.5,0.2,0.5,0.5V10.7z"/>
		</g>
	</g>
</g>
</svg>
